HIERARCHY
ROOT Hips
{
    OFFSET   0.000000   0.000000   0.000000
    CHANNELS 6 Xposition Yposition Zposition Zrotation Xrotation Yrotation
    JOINT Chest
    {
        OFFSET   0.000000   8.007230   0.000000
        CHANNELS 3 Zrotation Xrotation Yrotation
        JOINT Chest2
        {
            OFFSET   0.000000  22.077100   0.000000
            CHANNELS 3 Zrotation Xrotation Yrotation
            JOINT Neck
            {
                OFFSET   0.000000  23.254700   0.000000
                CHANNELS 3 Zrotation Xrotation Yrotation
                JOINT Head
                {
                    OFFSET   0.000010  14.370000   1.956610
                    CHANNELS 3 Zrotation Xrotation Yrotation
                    End Site
                    {
                        OFFSET   0.000000  19.566000   0.000000
                    }
                }
            }
            JOINT LeftCollar
            {
                OFFSET   3.911900  19.017000  -0.467063
                CHANNELS 3 Zrotation Xrotation Yrotation
                JOINT LeftShoulder
                {
                    OFFSET  10.383700   0.000000   0.000000
                    CHANNELS 3 Zrotation Xrotation Yrotation
                    JOINT LeftElbow
                    {
                        OFFSET  26.662100   0.001671   0.000522
                        CHANNELS 3 Zrotation Xrotation Yrotation
                        JOINT LeftWrist
                        {
                            OFFSET  28.869000   0.000037  -0.000114
                            CHANNELS 3 Zrotation Xrotation Yrotation
                            JOINT LeftFinger0
                            {
                                OFFSET   2.044650  -2.323450   3.252850
                                CHANNELS 3 Zrotation Xrotation Yrotation
                                JOINT LeftFinger01
                                {
                                    OFFSET   3.088140   0.000000   0.000000
                                    CHANNELS 3 Zrotation Xrotation Yrotation
                                    JOINT LeftFinger02
                                    {
                                        OFFSET   2.639460   0.000000   0.000000
                                        CHANNELS 3 Zrotation Xrotation Yrotation
                                        End Site
                                        {
                                            OFFSET   2.582190   0.000000   0.000000
                                        }
                                    }
                                }
                            }
                            JOINT LeftFinger1
                            {
                                OFFSET   8.364480   0.000000   3.252850
                                CHANNELS 3 Zrotation Xrotation Yrotation
                                JOINT LeftFinger11
                                {
                                    OFFSET   4.646930   0.000000   0.000000
                                    CHANNELS 3 Zrotation Xrotation Yrotation
                                    JOINT LeftFinger12
                                    {
                                        OFFSET   2.323470   0.000000   0.000000
                                        CHANNELS 3 Zrotation Xrotation Yrotation
                                        End Site
                                        {
                                            OFFSET   2.273050   0.000000   0.000000
                                        }
                                    }
                                }
                            }
                            JOINT LeftFinger2
                            {
                                OFFSET   8.364490   0.000016   1.078090
                                CHANNELS 3 Zrotation Xrotation Yrotation
                                JOINT LeftFinger21
                                {
                                    OFFSET   5.111620   0.000000   0.000000
                                    CHANNELS 3 Zrotation Xrotation Yrotation
                                    JOINT LeftFinger22
                                    {
                                        OFFSET   2.788150   0.000013   0.000000
                                        CHANNELS 3 Zrotation Xrotation Yrotation
                                        End Site
                                        {
                                            OFFSET   2.727660   0.000000   0.000000
                                        }
                                    }
                                }
                            }
                            JOINT LeftFinger3
                            {
                                OFFSET   7.899780   0.000016  -1.078090
                                CHANNELS 3 Zrotation Xrotation Yrotation
                                JOINT LeftFinger31
                                {
                                    OFFSET   4.646930   0.000000   0.000000
                                    CHANNELS 3 Zrotation Xrotation Yrotation
                                    JOINT LeftFinger32
                                    {
                                        OFFSET   2.323470   0.000000   0.000000
                                        CHANNELS 3 Zrotation Xrotation Yrotation
                                        End Site
                                        {
                                            OFFSET   2.273050   0.000000   0.000000
                                        }
                                    }
                                }
                            }
                            JOINT LeftFinger4
                            {
                                OFFSET   7.435080   0.000000  -3.252850
                                CHANNELS 3 Zrotation Xrotation Yrotation
                                JOINT LeftFinger41
                                {
                                    OFFSET   3.717550   0.000000   0.000000
                                    CHANNELS 3 Zrotation Xrotation Yrotation
                                    JOINT LeftFinger42
                                    {
                                        OFFSET   1.858760   0.000000   0.000000
                                        CHANNELS 3 Zrotation Xrotation Yrotation
                                        End Site
                                        {
                                            OFFSET   1.818440   0.000000   0.000000
                                        }
                                    }
                                }
                            }
                        }
                    }
                }
            }
            JOINT RightCollar
            {
                OFFSET  -3.911900  19.017000  -0.467064
                CHANNELS 3 Zrotation Xrotation Yrotation
                JOINT RightShoulder
                {
                    OFFSET -10.383700   0.000000   0.000000
                    CHANNELS 3 Zrotation Xrotation Yrotation
                    JOINT RightElbow
                    {
                        OFFSET -26.662100   0.001633   0.000260
                        CHANNELS 3 Zrotation Xrotation Yrotation
                        JOINT RightWrist
                        {
                            OFFSET -28.869000  -0.000045  -0.000080
                            CHANNELS 3 Zrotation Xrotation Yrotation
                            JOINT RightFinger0
                            {
                                OFFSET  -2.044660  -2.323490   3.252850
                                CHANNELS 3 Zrotation Xrotation Yrotation
                                JOINT RightFinger01
                                {
                                    OFFSET  -3.088140   0.000000   0.000000
                                    CHANNELS 3 Zrotation Xrotation Yrotation
                                    JOINT RightFinger02
                                    {
                                        OFFSET  -2.639450   0.000000   0.000000
                                        CHANNELS 3 Zrotation Xrotation Yrotation
                                        End Site
                                        {
                                            OFFSET  -2.582190   0.000000   0.000000
                                        }
                                    }
                                }
                            }
                            JOINT RightFinger1
                            {
                                OFFSET  -8.364480   0.000000   3.252850
                                CHANNELS 3 Zrotation Xrotation Yrotation
                                JOINT RightFinger11
                                {
                                    OFFSET  -4.646920   0.000000   0.000000
                                    CHANNELS 3 Zrotation Xrotation Yrotation
                                    JOINT RightFinger12
                                    {
                                        OFFSET  -2.323470   0.000000   0.000000
                                        CHANNELS 3 Zrotation Xrotation Yrotation
                                        End Site
                                        {
                                            OFFSET  -2.273050   0.000000   0.000000
                                        }
                                    }
                                }
                            }
                            JOINT RightFinger2
                            {
                                OFFSET  -8.364480   0.000000   1.078090
                                CHANNELS 3 Zrotation Xrotation Yrotation
                                JOINT RightFinger21
                                {
                                    OFFSET  -5.111610   0.000000   0.000000
                                    CHANNELS 3 Zrotation Xrotation Yrotation
                                    JOINT RightFinger22
                                    {
                                        OFFSET  -2.788160   0.000000   0.000000
                                        CHANNELS 3 Zrotation Xrotation Yrotation
                                        End Site
                                        {
                                            OFFSET  -2.727660   0.000000   0.000000
                                        }
                                    }
                                }
                            }
                            JOINT RightFinger3
                            {
                                OFFSET  -7.899780   0.000000  -1.078090
                                CHANNELS 3 Zrotation Xrotation Yrotation
                                JOINT RightFinger31
                                {
                                    OFFSET  -4.646930   0.000000   0.000000
                                    CHANNELS 3 Zrotation Xrotation Yrotation
                                    JOINT RightFinger32
                                    {
                                        OFFSET  -2.323470   0.000000   0.000000
                                        CHANNELS 3 Zrotation Xrotation Yrotation
                                        End Site
                                        {
                                            OFFSET  -2.273050   0.000000   0.000000
                                        }
                                    }
                                }
                            }
                            JOINT RightFinger4
                            {
                                OFFSET  -7.435090   0.000000  -3.252850
                                CHANNELS 3 Zrotation Xrotation Yrotation
                                JOINT RightFinger41
                                {
                                    OFFSET  -3.717550   0.000000   0.000000
                                    CHANNELS 3 Zrotation Xrotation Yrotation
                                    JOINT RightFinger42
                                    {
                                        OFFSET  -1.858760   0.000000   0.000000
                                        CHANNELS 3 Zrotation Xrotation Yrotation
                                        End Site
                                        {
                                            OFFSET  -1.818440   0.000000   0.000000
                                        }
                                    }
                                }
                            }
                        }
                    }
                }
            }
        }
    }
    JOINT LeftHip
    {
        OFFSET   9.782990   0.000000   0.000000
        CHANNELS 3 Zrotation Xrotation Yrotation
        JOINT LeftKnee
        {
            OFFSET  -0.000063 -41.789100   0.001657
            CHANNELS 3 Zrotation Xrotation Yrotation
            JOINT LeftAnkle
            {
                OFFSET   0.000078 -41.133200  -0.000113
                CHANNELS 3 Zrotation Xrotation Yrotation
                JOINT LeftToe
                {
                    OFFSET   0.000000  -6.358970  14.674500
                    CHANNELS 3 Zrotation Xrotation Yrotation
                    End Site
                    {
                        OFFSET   0.000000   0.000000   3.913200
                    }
                }
            }
        }
    }
    JOINT RightHip
    {
        OFFSET  -9.782990   0.000000   0.000000
        CHANNELS 3 Zrotation Xrotation Yrotation
        JOINT RightKnee
        {
            OFFSET   0.000053 -41.789200   0.000277
            CHANNELS 3 Zrotation Xrotation Yrotation
            JOINT RightAnkle
            {
                OFFSET   0.000030 -41.133200  -0.000150
                CHANNELS 3 Zrotation Xrotation Yrotation
                JOINT RightToe
                {
                    OFFSET   0.000000  -6.358960  14.674500
                    CHANNELS 3 Zrotation Xrotation Yrotation
                    End Site
                    {
                        OFFSET   0.000000   0.000000   3.913200
                    }
                }
            }
        }
    }
}
MOTION
Frames: 4
Frame Time:   0.016667
  5.980500  89.820800  -3.147380 -10.205400 -13.678600 -24.102300  -1.545000   7.308080   1.100400  -3.272860  14.582000   2.430930   3.838770  -0.769653   0.051693   6.309880  -1.539630  12.170000  -3.476960   1.816550   1.906660 -68.768600  19.042500  -3.433200   0.599937  -0.195153 -20.589500  13.083300  -5.782240   3.533350  44.187800  40.527800 -69.053500 -32.405500   0.000000   0.000122 -11.202800   0.002808   0.000000 -33.942000   5.775070  -8.503060 -28.122400   0.003299   0.001578 -19.685700  -0.003010   0.005084 -28.652000  -2.695760   4.919970 -40.831000   0.001665   0.001649 -27.193400  -0.005587   0.001051 -28.735700  -2.703040   4.916120 -43.278100  -0.006188   0.003209 -28.823200  -0.004578   0.001145 -37.044000  -3.385700   4.474120 -55.764900  -0.003612   0.001742 -37.139400  -0.002548   0.000167   3.560890  -6.783760   3.503470  -2.494860 -33.343500  27.815800 -27.967200 -14.107800   8.291190   8.168520 -68.376200  18.799700 -49.874500  33.990500  68.449900  12.916300   0.000297  -0.004698   1.458150   0.000136  -0.000455  19.794700   5.571650  15.091800  16.801600  -0.003618   0.001969  11.761100   0.001089   0.000669  24.628300   4.621560  10.001900  24.581600   0.018825   0.017875  16.371300   0.014322  -0.000225  22.435700   3.068160   7.406170  22.697500   0.016563   0.018946  15.116500   0.007968   0.001432  25.858700   1.836600   3.807980  38.864800   0.033875   0.001463  25.884000   0.022833  -0.005054  -1.618880  18.869200   8.381040  -0.309705   0.343412  11.466100   4.400620  -5.411100  11.552300   0.000000   0.000000  -0.000000   3.635060   8.072110   7.368950  -5.886550  12.129100  -4.320510   4.726940  -3.742270  12.192900  -0.000000   0.000000  -0.000000
  5.979920  89.747600  -3.048170  -9.727050 -13.852100 -23.978500  -1.666940   7.309600   1.132920  -3.524090  14.581900   2.512740   3.702120  -0.777111   0.050727   6.085280  -1.556000  12.077100  -3.564860   1.731620   1.801990 -68.720600  19.067900  -3.299090   0.651303  -0.152775 -20.817700  13.106200  -5.960830   3.550570  44.179700  40.601600 -69.220600 -32.420500   0.000000   0.000061 -11.210300   0.002774  -0.000000 -34.033000   5.806180  -8.507090 -28.198400   0.003489   0.001570 -19.738900  -0.003031   0.005379 -28.654700  -2.699340   4.925870 -40.967400   0.001666   0.001647 -27.284200  -0.005591   0.001051 -28.798800  -2.710690   4.919710 -43.373300  -0.006188   0.003209 -28.886600  -0.004577   0.001148 -37.143800  -3.395910   4.475710 -55.915700  -0.003610   0.001736 -37.239900  -0.002550   0.000125   3.848150  -6.529350   3.590030  -1.821360 -33.291700  27.221100 -28.516800 -13.701600  10.966700   9.341000 -65.868700  19.797800 -49.692500  34.281300  69.370500  12.876700   0.003205  -0.004807   1.438360   0.001630  -0.000415  20.572700   5.810710  15.107900  17.466100  -0.003612   0.002026  12.226200   0.001089   0.000674  25.462900   4.542280   9.483730  25.296800   0.026968   0.017712  16.847600   0.020185  -0.000273  23.615300   3.110680   7.078800  23.366700   0.024784   0.018764  15.562200   0.007669   0.001410  26.805800   1.721350   3.435100  40.268200   0.040763   0.001505  26.818700   0.026340  -0.005054  -2.155620  18.864500   8.525020  -0.299314   0.388817  11.422800   4.399430  -5.484030  11.457800  -0.000000   0.000000   0.000000   3.206530   8.303710   7.494550  -5.776860  11.830600  -4.376510   4.527750  -3.705650  11.988200   0.000000   0.000000   0.000000
  5.975870  89.628500  -2.942000  -9.214420 -14.043700 -23.872900  -1.802460   7.314060   1.180410  -3.804780  14.585200   2.626740   3.560170  -0.785496   0.049694   5.851970  -1.574280  11.985300  -3.643180   1.632270   1.689470 -68.678800  19.106400  -3.194000   0.687285  -0.129566 -20.949400  13.126000  -6.102060   3.570050  44.267200  40.702400 -69.450100 -32.445600   0.000000   0.000000 -11.222800   0.002737  -0.000000 -34.097400   5.812200  -8.507690 -28.251900   0.003681   0.001561 -19.776400  -0.003044   0.005678 -28.657400  -2.709930   4.944500 -41.071200   0.001667   0.001645 -27.353400  -0.005593   0.001052 -28.842900  -2.726020   4.935650 -43.440800  -0.006189   0.003210 -28.931600  -0.004576   0.001151 -37.208800  -3.415730   4.486630 -56.014100  -0.003608   0.001729 -37.305400  -0.002551   0.000085   4.133650  -6.290010   3.660310  -1.089180 -32.901800  26.538000 -29.162700 -13.443200  13.775800  10.350200 -63.468100  20.660800 -49.487700  34.503800  70.045900  12.808000   0.003621  -0.004906   1.404010   0.002111  -0.000373  21.445500   6.104260  15.132200  18.211500  -0.003606   0.002091  12.748000   0.001089   0.000677  26.274400   4.511970   9.079890  26.473300   0.032063   0.016572  17.631200   0.023747  -0.000321  24.925000   3.152950   6.781900  24.318900   0.030164   0.017488  16.196400   0.007377   0.001382  27.894000   1.573840   3.007320  41.884200   0.043901   0.001532  27.894900   0.027700  -0.005049  -2.734630  18.862100   8.686750  -0.286932   0.422682  11.390400   4.395860  -5.558390  11.364400  -0.000000   0.000000  -0.000000   2.731930   8.555020   7.633270  -5.659420  11.507500  -4.426410   4.325840  -3.659580  11.798100  -0.000000   0.000000   0.000000
  5.962930  89.325300  -2.824760  -8.606850 -14.279100 -23.790000  -1.975150   7.321360   1.247870  -4.163480  14.592800   2.786170   3.418570  -0.794813   0.049104   5.619290  -1.594300  11.896100  -3.707100   1.523930   1.574510 -68.642600  19.163900  -3.130160   0.703518  -0.138993 -20.973000  13.127500  -6.186480   3.592350  44.374700  40.771500 -69.505000 -32.460000   0.000000   0.000000 -11.230000   0.002694   0.000031 -34.084400   5.803660  -8.499400 -28.240400   0.003888   0.001565 -19.768300  -0.003060   0.005968 -28.656600  -2.722340   4.967330 -41.043100   0.001666   0.001647 -27.334600  -0.005591   0.001054 -28.830700  -2.737900   4.958730 -43.424500  -0.006190   0.003212 -28.920700  -0.004577   0.001146 -37.186700  -3.430130   4.507420 -55.983200  -0.003610   0.001734 -37.284800  -0.002550   0.000043   4.396330  -6.068100   3.702070  -0.209616 -32.174200  25.818100 -29.871000 -13.429700  16.662500  11.307300 -61.248400  21.537500 -49.631400  34.730600  70.444900  12.731100  -0.001549  -0.004992   1.365550   0.003023  -0.000329  22.561900   6.518230  15.160100  19.169600  -0.003609   0.002171  13.418700   0.001090   0.000667  26.988000   4.510560   8.873630  28.642800   0.027013   0.010909  19.076100   0.019318  -0.000371  26.186200   3.153490   6.518790  25.978900   0.026599   0.011760  17.302000   0.007044   0.001364  29.162100   1.378080   2.507410  43.774100   0.033225   0.001028  29.153600   0.020545  -0.005038  -3.421330  18.858900   8.881960  -0.270472   0.498400  11.365700   4.379670  -5.660820  11.279500   0.000000   0.000000   0.000000   2.113780   8.839330   7.805870  -5.515970  11.123100  -4.465150   4.126230  -3.584400  11.617500  -0.000000   0.000000   0.000000
